<?xml version="1.0" encoding="UTF-8" standalone="no"?>
<!-- Created with Inkscape (http://www.inkscape.org/) -->

<svg
   xmlns:dc="http://purl.org/dc/elements/1.1/"
   xmlns:cc="http://creativecommons.org/ns#"
   xmlns:rdf="http://www.w3.org/1999/02/22-rdf-syntax-ns#"
   xmlns:svg="http://www.w3.org/2000/svg"
   xmlns="http://www.w3.org/2000/svg"
   xmlns:sodipodi="http://sodipodi.sourceforge.net/DTD/sodipodi-0.dtd"
   xmlns:inkscape="http://www.inkscape.org/namespaces/inkscape"
   width="212.23618mm"
   height="73.002258mm"
   viewBox="0 0 752.01794 258.66942"
   id="svg2"
   version="1.1"
   inkscape:version="0.91 r13725"
   sodipodi:docname="logo.svg">
  <defs
     id="defs4" />
  <sodipodi:namedview
     id="base"
     pagecolor="#ffffff"
     bordercolor="#666666"
     borderopacity="1.0"
     inkscape:pageopacity="0.0"
     inkscape:pageshadow="2"
     inkscape:zoom="0.35"
     inkscape:cx="379.58039"
     inkscape:cy="-213.52245"
     inkscape:document-units="px"
     inkscape:current-layer="layer1"
     showgrid="false"
     fit-margin-top="0"
     fit-margin-left="0"
     fit-margin-right="0"
     fit-margin-bottom="0"
     inkscape:window-width="1920"
     inkscape:window-height="1025"
     inkscape:window-x="1366"
     inkscape:window-y="0"
     inkscape:window-maximized="1" />
  <metadata
     id="metadata7">
    <rdf:RDF>
      <cc:Work
         rdf:about="">
        <dc:format>image/svg+xml</dc:format>
        <dc:type
           rdf:resource="http://purl.org/dc/dcmitype/StillImage" />
        <dc:title></dc:title>
      </cc:Work>
    </rdf:RDF>
  </metadata>
  <g
     inkscape:label="Layer 1"
     inkscape:groupmode="layer"
     id="layer1"
     transform="translate(4.580391,-60.170325)">
    <g
       transform="matrix(1.25,0,0,-1.25,-248.44611,685.4785)"
       inkscape:label="ink_ext_XXXXXX"
       id="g3363">
      <g
         transform="scale(0.1,0.1)"
         id="g3365">
        <path
           inkscape:connector-curvature="0"
           id="path3367"
           style="fill:#9a831f;fill-opacity:1;fill-rule:nonzero;stroke:none"
           d="m 3060.96,4392.7 c -15.86,-123.99 -15.86,-210.24 -15.86,-210.24 l -269.16,10.8 316.71,404.29 c 0,0 -15.84,-80.84 -31.69,-204.85 z m 232.4,-323.4 c 0,0 42.25,26.91 36.97,59.26 -5.3,32.38 -47.55,48.51 -47.55,48.51 0,0 -8.78,107.81 21.15,382.77 35.86,329.56 68.65,436.59 31.68,441.97 -36.95,5.41 -36.95,-21.52 -132.04,-123.96 -95.09,-102.41 -633.84,-673.81 -633.84,-673.81 0,0 -116.21,-5.39 -142.62,0 -26.41,5.39 -31.67,0 -89.8,-59.32 -58.07,-59.28 -79.22,-107.8 -47.52,-113.18 31.7,-5.42 169.03,-5.42 169.03,-5.42 0,0 -459.56,-533.63 -501.81,-630.66 -42.25,-97.02 147.89,-32.35 190.17,-10.75 42.23,21.55 509.03,641.41 509.03,641.41 195.45,-10.75 389.39,1.8 389.39,1.8 0,0 -4.16,-212.8 38.07,-282.91 49.91,-82.72 140.86,-43.11 172.54,-43.11 31.69,0 79.22,26.97 63.38,97.02 -15.84,70.07 -26.23,270.38 -26.23,270.38" />
        <path
           inkscape:connector-curvature="0"
           id="path3369"
           style="fill:#9a831f;fill-opacity:1;fill-rule:nonzero;stroke:none"
           d="m 3716.24,4685.36 c 0,0 -12.59,-113.49 -143.76,-440.12 -132.46,-329.92 -156.34,-449.9 -134.76,-508.81 21.55,-58.92 113.26,-96.4 242.55,-37.56 90.07,41.08 237.17,123.25 285.7,182.12 48.5,58.91 43.12,101.8 -43.13,58.91 -86.23,-42.82 -214.58,-122.69 -226.4,-5.36 -5.4,53.59 197.68,504.41 273.17,713.37 48.08,133.02 80.81,192.74 -37.76,144.59 -118.58,-48.21 -215.61,-107.14 -215.61,-107.14" />
        <path
           inkscape:connector-curvature="0"
           id="path3371"
           style="fill:#9a831f;fill-opacity:1;fill-rule:nonzero;stroke:none"
           d="m 4267.85,3880.12 c -22.11,40.56 70.07,245.23 172.48,350.32 102.41,105.08 134.76,11.67 194.06,70.06 59.29,58.36 0,151.79 -134.77,116.78 -134.79,-35.07 -289.52,-112.47 -442.03,-426.2 -127.45,-262.26 107.83,-367.78 285.72,-291.89 177.87,75.88 256.99,184.86 278.58,225.75 21.54,40.82 17.89,101.16 -52.2,54.49 -70.07,-46.72 -231.77,-227.73 -301.84,-99.31" />
        <path
           inkscape:connector-curvature="0"
           id="path3373"
           style="fill:#9a831f;fill-opacity:1;fill-rule:nonzero;stroke:none"
           d="m 5054.84,4850.94 c 0,0 -156.33,-404.32 -221.03,-560.62 -64.66,-156.35 -176.06,-436.64 -186.84,-490.57 -10.78,-53.9 16.17,-91.64 80.86,-80.87 94.22,15.76 118.61,37.77 177.91,145.54 59.27,107.85 127.53,242.59 181.46,291.11 53.89,48.51 118.57,64.67 75.48,-53.91 -43.16,-118.59 -97.04,-296.49 -80.87,-361.13 16.16,-64.73 97.03,-80.86 167.12,-48.52 70.03,32.33 102.41,53.88 123.95,80.81 21.55,26.97 -30.75,54.11 -43.14,161.71 -10.73,93.43 32.37,301.9 37.76,366.57 5.38,64.68 -4.11,140.33 -118.57,75.48 -95.24,-53.88 -183.29,-145.54 -183.29,-145.54 0,0 188.67,549.8 220.99,641.46 32.33,91.64 16.16,129.35 -53.92,97.05 -70.03,-32.37 -150.9,-75.47 -177.87,-118.57" />
        <path
           inkscape:connector-curvature="0"
           id="path3375"
           style="fill:#9a831f;fill-opacity:1;fill-rule:nonzero;stroke:none"
           d="m 5820.3,4295.68 c 75.47,37.71 173.63,-2.7 87.38,-138.46 C 5819.79,4018.84 5700.85,3990 5700.85,3990 c -24.3,149.36 43.97,267.96 119.45,305.68 z m 28.75,-479.77 c -117.49,7.36 -128.76,87.99 -128.76,87.99 0,0 101.39,30.74 202.78,119.45 149.72,131.02 198.13,338.87 64.31,401.7 -98.41,46.26 -296.48,-21.6 -436.61,-204.85 -140.17,-183.28 -124.01,-485.12 150.9,-512.09 274.94,-26.94 318.07,145.57 318.07,145.57 -32.36,53.87 -84.46,-43.13 -170.69,-37.77" />
        <path
           inkscape:connector-curvature="0"
           id="path3377"
           style="fill:#9a831f;fill-opacity:1;fill-rule:nonzero;stroke:none"
           d="m 6391.67,4047.72 c 0,0 86.25,194.03 102.41,247.96 16.16,53.95 10.78,107.77 -70.09,124.01 -80.83,16.11 -118.57,-86.3 -167.08,-183.3 -48.51,-97.03 -172.45,-388.1 -183.25,-431.26 -10.77,-43.09 23.61,-148.48 163.53,-48.48 113.23,80.81 189.09,192.66 267.67,271.27 57.46,57.52 124.02,116.8 124.02,116.8 0,0 -59.32,-183.27 -86.28,-269.5 -26.97,-86.22 53.9,-134.73 134.76,-70.09 80.86,64.7 285.69,280.31 285.69,280.31 0,0 -122.17,-312.66 -127.55,-350.36 -5.39,-37.75 43.12,-64.68 129.37,-16.2 86.25,48.52 195.87,82.69 195.87,109.65 0,26.94 -9.03,127.53 23.35,273.09 32.33,145.54 70.06,285.72 -16.19,307.25 -63.18,15.8 -377.32,-344.99 -377.32,-344.99 0,0 75.45,215.63 80.84,269.51 5.41,53.95 -70.07,129.4 -150.93,48.59 -80.84,-80.92 -323.43,-371.99 -328.82,-334.26" />
        <path
           inkscape:connector-curvature="0"
           id="path3379"
           style="fill:#9a831f;fill-opacity:1;fill-rule:nonzero;stroke:none"
           d="m 7516.67,4012.89 c 0,0 246.39,365.44 272.2,380.32 25.86,14.78 98.1,29.56 144.48,24.61 46.54,-4.88 46.54,-44.41 -10.25,-143.03 -56.75,-98.59 -287.8,-725.46 -277.44,-774.73 10.37,-49.34 108.5,82.16 139.49,111.74 31.01,29.58 87.66,26.35 36.04,-72.29 -51.62,-98.61 -201.34,-246.59 -268.42,-226.89 -67.14,19.73 -92.99,182.49 0,438.95 92.89,256.44 118.65,300.83 118.65,300.83 0,0 -158.49,-259.83 -220.99,-303.09 -104.23,-72.13 -153.11,4.93 -153.11,172.6 0,167.71 21.97,365.3 32.33,409.68 10.31,44.43 87.84,90.36 149.74,95.36 62.02,4.95 82.64,-34.53 62.02,-88.79 -20.69,-54.24 -45.41,-236.54 -24.74,-325.27" />
        <path
           inkscape:connector-curvature="0"
           id="path3381"
           style="fill:#231f20;fill-opacity:1;fill-rule:nonzero;stroke:none"
           d="m 2666.9,3474.58 4556.69,0 0,43.0977 -4556.69,0 0,-43.0977 z" />
        <path
           inkscape:connector-curvature="0"
           id="path3383"
           style="fill:#231f20;fill-opacity:1;fill-rule:nonzero;stroke:none"
           d="m 3304.17,3065.31 -54.26,125.45 -55.9,-125.45 110.16,0 z m 9.15,-19.85 -128.71,0 -15.3,-35.43 c -5.06,-11.91 -7.54,-21.6 -7.54,-29.38 0,-10.18 4.12,-17.67 12.35,-22.44 4.84,-2.98 16.75,-5.09 35.75,-6.54 l 0,-9.96 -121.17,0 0,9.96 c 13.06,1.97 23.8,7.33 32.24,16.23 8.41,8.9 18.79,27.27 31.14,54.98 l 130.34,290.74 5.11,0 131.34,-298.82 c 12.56,-28.25 22.85,-46.1 30.91,-53.43 6.1,-5.55 14.71,-8.8 25.83,-9.7 l 0,-9.96 -176.27,0 0,9.96 7.23,0 c 14.15,0 24.12,1.97 29.85,5.92 3.93,2.82 5.9,7.01 5.9,12.34 0,3.28 -0.5,6.54 -1.59,9.93 -0.38,1.67 -3.08,8.33 -8.11,20.14 l -19.3,45.46" />
        <path
           inkscape:connector-curvature="0"
           id="path3385"
           style="fill:#231f20;fill-opacity:1;fill-rule:nonzero;stroke:none"
           d="m 3971.47,3314.36 0,-128.4 -9.95,0 c -11.97,35.07 -30.01,61.86 -54.01,80.07 -23.99,18.25 -50.24,27.41 -78.73,27.41 -27.21,0 -49.86,-7.65 -67.99,-22.96 -18.04,-15.35 -30.88,-36.72 -38.38,-64.1 -7.56,-27.39 -11.29,-55.51 -11.29,-84.32 0,-34.94 4.13,-65.65 12.32,-91.97 8.25,-26.27 21.56,-45.59 39.95,-58.05 18.34,-12.33 40.16,-18.48 65.39,-18.48 8.76,0 17.81,0.98 27.03,2.87 9.19,1.83 18.65,4.57 28.35,8.17 l 0,75.73 c 0,14.31 -0.99,23.62 -2.98,27.86 -1.98,4.2 -6.04,7.97 -12.21,11.41 -6.18,3.34 -13.68,5.06 -22.45,5.06 l -9.39,0 0,10.03 177.05,0 0,-10.03 c -13.42,-0.85 -22.79,-2.75 -28.03,-5.47 -5.34,-2.8 -9.41,-7.46 -12.27,-13.88 -1.6,-3.33 -2.41,-11.67 -2.41,-24.98 l 0,-75.73 c -23.29,-10.39 -47.53,-18.24 -72.68,-23.51 -25.19,-5.38 -51.26,-7.98 -78.31,-7.98 -34.57,0 -63.3,4.7 -86.1,14.11 -22.85,9.47 -42.99,21.84 -60.46,37.15 -17.48,15.25 -31.13,32.51 -41,51.75 -12.55,24.65 -18.8,52.31 -18.8,82.97 0,54.79 19.24,101.07 57.77,138.84 38.5,37.81 86.94,56.72 145.33,56.72 18.12,0 34.39,-1.41 48.95,-4.29 7.84,-1.49 20.6,-5.49 38.28,-12.23 17.63,-6.73 28.06,-10.06 31.28,-10.06 5.01,0 9.67,1.8 13.97,5.46 4.3,3.7 8.26,10.68 11.82,20.83 l 9.95,0" />
        <path
           inkscape:connector-curvature="0"
           id="path3387"
           style="fill:#231f20;fill-opacity:1;fill-rule:nonzero;stroke:none"
           d="m 4279.82,3285.1 0,-148.31 7.23,0 c 23.11,0 39.84,7.28 50.24,21.7 10.42,14.57 17.04,35.94 19.9,64.29 l 10.21,0 0,-190.74 -10.21,0 c -2.15,20.7 -6.66,37.79 -13.59,51.05 -6.89,13.27 -14.92,22.19 -24.01,26.76 -9.18,4.46 -22.45,6.83 -39.77,6.83 l 0,-102.68 c 0,-20.06 0.82,-32.27 2.52,-36.8 1.72,-4.45 4.9,-8.12 9.52,-11.04 4.65,-2.85 12.18,-4.26 22.58,-4.26 l 21.78,0 c 34.04,0 61.31,7.82 81.82,23.61 20.52,15.77 35.24,39.83 44.19,72.03 l 9.94,0 -16.38,-115.83 -314.9,0 0,9.96 12.07,0 c 10.56,0 19.08,1.89 25.52,5.64 4.65,2.51 8.26,6.77 10.76,12.9 2,4.31 2.99,15.58 2.99,33.79 l 0,239.77 c 0,16.41 -0.5,26.57 -1.38,30.29 -1.79,6.26 -5.1,11.13 -9.92,14.58 -6.81,4.92 -16.13,7.48 -27.97,7.48 l -12.07,0 0,9.96 304.98,0 0,-107.75 -10.23,0 c -5.21,26.3 -12.51,45.2 -21.94,56.7 -9.36,11.44 -22.67,19.85 -39.85,25.27 -10.05,3.2 -28.86,4.8 -56.43,4.8 l -37.6,0" />
        <path
           inkscape:connector-curvature="0"
           id="path3389"
           style="fill:#231f20;fill-opacity:1;fill-rule:nonzero;stroke:none"
           d="m 4743.96,3306.08 179.75,-225.99 0,156.65 c 0,21.88 -3.13,36.61 -9.41,44.27 -8.56,10.44 -23.02,15.45 -43.23,15.11 l 0,9.96 120.36,0 0,-9.96 c -15.39,-1.94 -25.77,-4.56 -31.04,-7.66 -5.3,-3.13 -9.39,-8.16 -12.38,-15.35 -2.93,-7.03 -4.43,-19.16 -4.43,-36.37 l 0,-303.31 -9.1,0 -246.4,303.31 0,-231.62 c 0,-20.92 4.8,-35.09 14.38,-42.45 9.57,-7.36 20.53,-11 32.93,-11 l 8.57,0 0,-9.96 -129.23,0 0,9.96 c 20.06,0.2 34.03,4.3 41.91,12.33 7.89,8.04 11.84,21.79 11.84,41.12 l 0,257.14 -7.79,9.65 c -7.7,9.75 -14.52,16.06 -20.45,19.11 -5.91,3.05 -14.39,4.72 -25.51,5.1 l 0,9.96 129.23,0" />
        <path
           inkscape:connector-curvature="0"
           id="path3391"
           style="fill:#231f20;fill-opacity:1;fill-rule:nonzero;stroke:none"
           d="m 5481.63,3314.36 0,-126.24 -10.49,0 c -7.85,32.91 -22.53,58.24 -44.02,75.75 -21.5,17.53 -45.87,26.33 -73.12,26.33 -22.7,0 -43.61,-6.52 -62.59,-19.63 -18.99,-13.05 -32.85,-30.19 -41.62,-51.33 -11.33,-27.02 -16.93,-57.13 -16.93,-90.25 0,-32.59 4.1,-62.29 12.32,-89.1 8.26,-26.76 21.16,-46.97 38.74,-60.7 17.54,-13.67 40.27,-20.55 68.24,-20.55 22.91,0 43.91,5.06 63.01,15.06 19.03,10.06 39.14,27.35 60.28,51.87 l 0,-31.47 c -20.42,-21.3 -41.66,-36.77 -63.83,-46.28 -22.09,-9.63 -47.92,-14.39 -77.47,-14.39 -38.9,0 -73.43,7.77 -103.59,23.36 -30.15,15.58 -53.44,38 -69.84,67.16 -16.41,29.18 -24.58,60.25 -24.58,93.24 0,34.73 9.08,67.67 27.25,98.92 18.19,31.1 42.71,55.26 73.63,72.53 30.89,17.16 63.72,25.72 98.49,25.72 25.57,0 52.62,-5.53 81.14,-16.62 16.42,-6.46 26.93,-9.67 31.38,-9.67 5.77,0 10.72,2.07 14.95,6.33 4.21,4.16 6.93,10.86 8.16,19.96 l 10.49,0" />
        <path
           inkscape:connector-curvature="0"
           id="path3393"
           style="fill:#231f20;fill-opacity:1;fill-rule:nonzero;stroke:none"
           d="m 5823.27,2951.67 0,-9.96 -190.46,0 0,9.96 12.06,0 c 10.57,0 19.14,1.89 25.53,5.64 4.67,2.51 8.26,6.77 10.77,12.9 1.97,4.31 2.95,15.58 2.95,33.79 l 0,239.77 c 0,18.57 -0.98,30.24 -2.95,34.86 -1.97,4.72 -5.97,8.72 -11.95,12.29 -5.98,3.48 -14.13,5.2 -24.35,5.2 l -12.06,0 0,9.96 190.46,0 0,-9.96 -12.05,0 c -10.58,0 -19.09,-1.86 -25.53,-5.61 -4.69,-2.54 -8.34,-6.83 -11,-12.89 -1.96,-4.35 -2.93,-15.64 -2.93,-33.85 l 0,-239.77 c 0,-18.57 1,-30.22 3.07,-34.84 2.04,-4.72 6.06,-8.75 12.06,-12.24 6.01,-3.46 14.12,-5.25 24.33,-5.25 l 12.05,0" />
        <path
           inkscape:connector-curvature="0"
           id="path3395"
           style="fill:#231f20;fill-opacity:1;fill-rule:nonzero;stroke:none"
           d="m 6095.88,3285.1 0,-148.31 7.28,0 c 23.15,0 39.87,7.28 50.26,21.7 10.34,14.57 17.01,35.94 19.88,64.29 l 10.17,0 0,-190.74 -10.17,0 c -2.18,20.7 -6.69,37.79 -13.59,51.05 -6.91,13.27 -14.91,22.19 -24.07,26.76 -9.08,4.46 -22.37,6.83 -39.76,6.83 l 0,-102.68 c 0,-20.06 0.87,-32.27 2.59,-36.8 1.67,-4.45 4.82,-8.12 9.49,-11.04 4.7,-2.85 12.24,-4.26 22.63,-4.26 l 21.72,0 c 34.03,0 61.32,7.82 81.82,23.61 20.5,15.77 35.23,39.83 44.23,72.03 l 9.9,0 -16.37,-115.83 -314.88,0 0,9.96 12.08,0 c 10.58,0 19.09,1.89 25.53,5.64 4.67,2.51 8.18,6.77 10.72,12.9 1.97,4.31 2.95,15.58 2.95,33.79 l 0,239.77 c 0,16.41 -0.43,26.57 -1.28,30.29 -1.82,6.26 -5.18,11.13 -10.01,14.58 -6.77,4.92 -16.05,7.48 -27.91,7.48 l -12.08,0 0,9.96 304.93,0 0,-107.75 -10.18,0 c -5.24,26.3 -12.52,45.2 -21.94,56.7 -9.36,11.44 -22.65,19.85 -39.92,25.27 -10.03,3.2 -28.81,4.8 -56.41,4.8 l -37.61,0" />
        <path
           inkscape:connector-curvature="0"
           id="path3397"
           style="fill:#231f20;fill-opacity:1;fill-rule:nonzero;stroke:none"
           d="m 6681.51,3314.36 2.93,-121.44 -10.97,0 c -5.22,30.48 -17.96,55 -38.28,73.52 -20.4,18.5 -42.34,27.82 -65.99,27.82 -18.23,0 -32.74,-4.94 -43.35,-14.63 -10.7,-9.8 -16.02,-21.01 -16.02,-33.7 0,-8.12 1.91,-15.22 5.6,-21.61 5.23,-8.36 13.54,-16.7 25.04,-24.94 8.44,-5.88 27.81,-16.34 58.29,-31.37 42.64,-21.01 71.37,-40.84 86.25,-59.39 14.7,-18.68 22.03,-39.95 22.03,-63.98 0,-30.43 -11.87,-56.62 -35.58,-78.66 -23.75,-21.86 -53.9,-32.87 -90.43,-32.87 -11.47,0 -22.32,1.18 -32.48,3.57 -10.26,2.31 -23.03,6.65 -38.48,13.13 -8.55,3.55 -15.68,5.37 -21.21,5.37 -4.68,0 -9.6,-1.82 -14.76,-5.37 -5.2,-3.58 -9.41,-9.02 -12.64,-16.38 l -9.91,0 0,137.55 9.91,0 c 7.9,-38.74 23.06,-68.19 45.55,-88.5 22.48,-20.37 46.7,-30.56 72.66,-30.56 20.09,0 36.07,5.46 47.98,16.39 11.9,10.91 17.85,23.66 17.85,38.18 0,8.6 -2.26,16.93 -6.85,24.96 -4.54,8.11 -11.47,15.76 -20.81,22.96 -9.33,7.29 -25.81,16.7 -49.46,28.4 -33.1,16.24 -56.92,30.2 -71.45,41.69 -14.49,11.39 -25.68,24.24 -33.45,38.33 -7.78,14.16 -11.67,29.73 -11.67,46.71 0,29.09 10.62,53.78 31.96,74.22 21.3,20.45 48.15,30.6 80.61,30.6 11.8,0 23.3,-1.43 34.38,-4.23 8.41,-2.15 18.67,-6.18 30.78,-12 12.11,-5.78 20.55,-8.73 25.35,-8.73 4.67,0 8.36,1.44 11.06,4.29 2.69,2.87 5.17,9.75 7.52,20.67 l 8.04,0" />
      </g>
    </g>
  </g>
</svg>
